<svg width="25" height="29" viewBox="0 0 25 29" fill="none" xmlns="http://www.w3.org/2000/svg">
<path d="M14.2857 0H17.8214C18.0786 1.29594 18.7857 2.93081 20.0268 4.553C21.2411 6.14256 22.8518 7.25 25 7.25V10.875C21.8696 10.875 19.5179 9.39962 17.8571 7.55994V19.9375C17.8571 21.7299 17.3335 23.482 16.3524 24.9724C15.3713 26.4627 13.9769 27.6242 12.3454 28.3102C10.7139 28.9961 8.91867 29.1755 7.1867 28.8259C5.45472 28.4762 3.8638 27.6131 2.61512 26.3457C1.36644 25.0782 0.516075 23.4635 0.171564 21.7055C-0.172947 19.9475 0.00386861 18.1254 0.679651 16.4694C1.35543 14.8135 2.49983 13.3981 3.96813 12.4023C5.43642 11.4065 7.16267 10.875 8.92857 10.875V14.5C7.86903 14.5 6.83328 14.8189 5.9523 15.4164C5.07133 16.0139 4.38469 16.8631 3.97922 17.8567C3.57375 18.8502 3.46766 19.9435 3.67437 20.9983C3.88107 22.0531 4.39129 23.0219 5.1405 23.7824C5.88971 24.5428 6.84426 25.0607 7.88345 25.2705C8.92263 25.4803 9.99977 25.3726 10.9787 24.9611C11.9576 24.5495 12.7942 23.8526 13.3829 22.9584C13.9715 22.0642 14.2857 21.0129 14.2857 19.9375V0Z" fill="#B41A1A"/>
</svg>
